HIERARCHY
ROOT Hips
{
     OFFSET 1.88212 96.90440 -13.34250
     CHANNELS 6 Xposition Yposition Zposition Zrotation Xrotation Yrotation
     JOINT Spine
     {
          OFFSET 0.00000 11.89050 0.00000
          CHANNELS 3 Zrotation Xrotation Yrotation
          JOINT Spine1
          {
               OFFSET -0.00000 25.65740 0.12766
               CHANNELS 3 Zrotation Xrotation Yrotation
               JOINT HEad
               {
                    OFFSET 0.00000 8.73416 0.01134
                    CHANNELS 3 Zrotation Xrotation Yrotation
                    End Site
                    {
                         OFFSET -0.29000 12.77420 2.51395
                    }
               }
               JOINT LeftShoulder1
               {
                    OFFSET 8.99000 -0.36225 -0.22000
                    CHANNELS 3 Zrotation Xrotation Yrotation
                    JOINT LeftArm
                    {
                         OFFSET 10.28270 -0.00338 0.32212
                         CHANNELS 3 Zrotation Xrotation Yrotation
                         JOINT LeftForeArm
                         {
                              OFFSET 32.76690 0.09914 -1.42434
                              CHANNELS 3 Zrotation Xrotation Yrotation
                              JOINT LeftHand
                              {
                                   OFFSET 27.56430 0.08536 1.02216
                                   CHANNELS 3 Zrotation Xrotation Yrotation
                                   End Site
                                   {
                                        OFFSET 16.74430 -0.60000 1.50291
                                   }
                              }
                         }
                    }
               }
               JOINT RightShoulder
               {
                    OFFSET -8.99000 -0.36225 -0.22000
                    CHANNELS 3 Zrotation Xrotation Yrotation
                    JOINT RightArm
                    {
                         OFFSET -10.28270 -0.00338 0.32212
                         CHANNELS 3 Zrotation Xrotation Yrotation
                         JOINT RightForeArm
                         {
                              OFFSET -32.89710 0.09914 -1.42434
                              CHANNELS 3 Zrotation Xrotation Yrotation
                              JOINT RightHand
                              {
                                   OFFSET -27.49210 0.08536 1.02216
                                   CHANNELS 3 Zrotation Xrotation Yrotation
                                   End Site
                                   {
                                        OFFSET -16.63120 -0.60000 1.50291
                                   }
                              }
                         }
                    }
               }
          }
     }
     JOINT LeftUpLeg
     {
          OFFSET 8.94580 -8.66707 0.10165
          CHANNELS 3 Zrotation Xrotation Yrotation
          JOINT LeftLeg
          {
               OFFSET 0.00000 -44.42270 1.37270
               CHANNELS 3 Zrotation Xrotation Yrotation
               JOINT LeftFoot
               {
                    OFFSET -0.25355 -42.09240 -1.46059
                    CHANNELS 3 Zrotation Xrotation Yrotation
                    JOINT LeftToes
                    {
                         OFFSET -0.04000 -4.41509 8.49910
                         CHANNELS 3 Zrotation Xrotation Yrotation
                         End Site
                         {
                              OFFSET 0.08000 -0.04745 9.77979
                         }
                    }
               }
          }
     }
     JOINT RightUpLeg
     {
          OFFSET -8.94580 -8.66707 0.10165
          CHANNELS 3 Zrotation Xrotation Yrotation
          JOINT RightLeg
          {
               OFFSET 0.00000 -44.42270 1.37270
               CHANNELS 3 Zrotation Xrotation Yrotation
               JOINT RightFoot
               {
                    OFFSET 0.25355 -42.09240 -1.46059
                    CHANNELS 3 Zrotation Xrotation Yrotation
                    JOINT RightToes
                    {
                         OFFSET 0.04000 -4.41509 8.49910
                         CHANNELS 3 Zrotation Xrotation Yrotation
                         End Site
                         {
                              OFFSET -0.08000 -0.13745 9.77979
                         }
                    }
               }
          }
     }
}
MOTION
Frames: 8
Frame Time: 0.01667
44.38415 73.61337 -120.40153 2.69511 -12.64378 -24.64301 -24.64174 53.48705 14.62432 -0.04465 0.06369 -0.01659 -20.86861 -5.69107 20.34071 -11.67318 19.85625 2.79376 -122.27853 -49.77255 -96.13671 -34.83428 60.09733 -93.25053 3.89942 -8.13591 -3.10686 -3.97862 27.58781 6.51480 89.19742 -16.07569 100.06480 29.34454 54.07842 101.31591 -8.40128 9.65584 -22.08548 14.75542 -35.44753 15.09451 43.98515 51.36431 -26.34046 -19.71284 -0.03804 -0.00660 -13.78996 -2.73822 -16.38119 -27.26478 -35.38359 -13.64554 -54.69049 68.40401 72.43728 26.69064 0.00529 0.03100 -23.69528 -41.53495 -7.01403 
44.66965 70.99962 -121.28619 2.41187 -13.15502 -24.79113 -31.69509 57.69887 20.30505 -0.04635 0.06459 -0.01270 -18.96622 -9.08913 19.32775 -9.89534 15.66048 2.57310 -118.31879 -52.73187 -93.34908 -46.57541 59.77045 -87.62947 11.15223 11.14103 -4.17784 -1.15486 22.61393 5.35390 82.92619 -22.00004 90.38850 29.38266 50.22545 102.26588 -8.20481 6.23127 -2.42869 14.90035 -36.73478 15.05028 46.28172 52.28006 -27.78926 -16.48595 -0.02351 -0.01149 -19.53453 -19.13936 -11.53430 -27.54436 -38.59463 -13.14905 -65.62059 70.90097 83.36208 30.45304 0.01065 0.02964 -28.18137 -43.00714 -7.12885 
44.97609 68.57294 -122.36968 2.09210 -12.59904 -24.05054 -38.25190 60.91081 25.70472 -0.04848 0.06330 -0.00802 -16.67523 -12.50414 18.28053 -7.81381 11.71277 2.51339 -114.91349 -54.47628 -90.76037 -52.54355 59.65189 -85.64878 7.27116 5.20152 -1.96184 1.79690 17.99582 4.73296 77.89205 -24.93625 83.35494 29.16875 48.06772 103.85175 -6.53666 10.96336 -3.28028 15.24874 -39.25292 14.37216 48.60156 52.97634 -29.78579 -13.36490 -0.01369 -0.01477 -22.27205 -12.10045 -13.58657 -28.03005 -42.61596 -12.86325 -79.35091 73.54660 96.67934 34.49854 0.01652 0.02455 -33.06087 -44.79159 -6.97274 
45.31460 65.82202 -123.61737 2.15624 -10.78179 -21.57928 -42.43388 63.48298 28.54066 -0.05681 0.05636 -0.00532 -13.94647 -15.82676 17.21694 -5.58800 8.05707 2.50086 -111.88792 -55.54444 -88.56156 -55.12129 59.66852 -85.62994 11.12013 14.82279 -3.07203 4.83993 13.84012 4.69591 74.35680 -26.24008 78.37605 28.49205 47.15817 105.84668 -6.08274 7.94752 5.17809 14.80064 -43.74534 12.15976 51.12843 53.57667 -32.47706 -10.35586 -0.00743 -0.01843 -27.86946 -14.87734 -12.57101 -30.41867 -47.12745 -14.35828 -97.33204 75.82883 114.02186 38.85175 0.02212 0.01964 -38.11484 -46.52768 -7.16091 
45.57276 63.18014 -124.89125 2.24832 -9.21123 -19.29569 -48.63830 65.46008 33.61997 -0.06070 0.04811 0.00087 -10.83310 -19.01565 16.09574 -3.00946 4.70533 2.51967 -109.33098 -55.95618 -86.73957 -55.57491 59.77803 -86.82330 8.96481 10.27785 -1.91642 8.47744 10.09584 4.72059 71.68186 -26.52102 75.05055 27.61203 46.83965 107.95622 -5.70121 10.85884 3.02212 14.27174 -48.49498 10.15526 54.55405 54.05263 -36.51145 -7.93240 0.00264 -0.02048 -31.59646 -13.30555 -13.04117 -32.98733 -51.28024 -14.63944 -119.48794 77.16757 135.41542 43.48485 0.02676 0.01425 -42.82383 -47.92632 -7.38381 
45.74044 60.59407 -126.10664 2.38529 -7.87512 -17.17348 -53.46543 66.58702 37.65319 0.01954 -0.02866 -0.00959 -8.39158 -21.11295 15.23102 -1.21141 2.50094 2.62960 -107.13116 -56.03817 -85.28559 -54.80113 59.74902 -88.65065 10.97962 15.22693 -2.30395 11.13259 7.62702 4.99874 70.01510 -26.38599 72.89411 26.69310 46.84163 110.02641 -5.57760 8.82043 6.43919 13.57238 -53.42236 8.29072 58.42490 54.59833 -41.49372 -5.77646 0.00679 -0.01908 -35.25229 -13.72324 -12.03241 -35.39006 -54.81709 -13.55289 -143.15421 77.23774 158.24599 48.39050 0.03117 0.00902 -47.27670 -49.16682 -7.45708 
45.83424 57.78532 -127.16876 2.58066 -6.75647 -15.13896 -56.72630 67.12340 40.39373 0.02124 -0.02568 -0.00744 -6.47003 -22.40121 14.38247 -0.13054 1.08190 2.86104 -104.85305 -55.61034 -83.88692 -53.20212 59.53448 -90.75675 10.06432 11.93645 -1.55124 13.02113 6.09944 5.50566 66.96503 -23.02353 72.71616 26.89840 47.88201 111.27480 -8.09536 13.70152 2.36057 14.89224 -59.06595 8.54224 61.92323 57.36864 -48.44289 -2.08531 0.01751 0.00863 -38.67756 -14.42454 -11.89813 -37.34748 -57.66257 -10.98403 -164.61441 75.94270 178.83063 53.65737 0.04054 0.00775 -52.01118 -50.18404 -8.66574 
45.86120 55.02607 -128.05206 2.82899 -5.84068 -13.17868 -58.46264 67.24562 41.81678 0.02242 -0.02044 -0.00846 -5.08989 -22.94820 13.50964 0.54117 0.35996 2.97578 -102.80409 -55.03620 -82.66867 -51.17146 59.05747 -92.99187 10.79314 14.67612 -1.55943 14.50015 5.33367 5.85681 63.02920 -17.96691 74.24813 25.37885 44.81192 111.48762 -9.80864 14.44643 2.60019 19.46840 -65.01936 12.24677 66.23977 61.59383 -57.76734 2.72221 0.03817 0.04033 -41.80716 -16.31273 -11.55252 -39.40678 -59.83763 -8.66001 -177.65739 73.46363 191.25153 59.25128 0.05429 0.00646 -56.97215 -51.56628 -9.64915 
